%TF.GenerationSoftware,KiCad,Pcbnew,8.0.5*%
%TF.CreationDate,2026-01-17T19:17:13+05:30*%
%TF.ProjectId,5V_to_3V3_Power_Module,35565f74-6f5f-4335-9633-5f506f776572,rev?*%
%TF.SameCoordinates,Original*%
%TF.FileFunction,Legend,Top*%
%TF.FilePolarity,Positive*%
%FSLAX46Y46*%
G04 Gerber Fmt 4.6, Leading zero omitted, Abs format (unit mm)*
G04 Created by KiCad (PCBNEW 8.0.5) date 2026-01-17 19:17:13*
%MOMM*%
%LPD*%
G01*
G04 APERTURE LIST*
%ADD10C,0.300000*%
%ADD11C,0.150000*%
%ADD12C,0.120000*%
G04 APERTURE END LIST*
D10*
X123340225Y-72385912D02*
X123840225Y-73885912D01*
X123840225Y-73885912D02*
X124340225Y-72385912D01*
X124840224Y-73885912D02*
X124840224Y-72385912D01*
X125554510Y-73885912D02*
X125554510Y-72385912D01*
X125554510Y-72385912D02*
X126411653Y-73885912D01*
X126411653Y-73885912D02*
X126411653Y-72385912D01*
X128268796Y-73314484D02*
X129411654Y-73314484D01*
X128840225Y-73885912D02*
X128840225Y-72743055D01*
X130840225Y-72385912D02*
X130125939Y-72385912D01*
X130125939Y-72385912D02*
X130054511Y-73100198D01*
X130054511Y-73100198D02*
X130125939Y-73028769D01*
X130125939Y-73028769D02*
X130268797Y-72957341D01*
X130268797Y-72957341D02*
X130625939Y-72957341D01*
X130625939Y-72957341D02*
X130768797Y-73028769D01*
X130768797Y-73028769D02*
X130840225Y-73100198D01*
X130840225Y-73100198D02*
X130911654Y-73243055D01*
X130911654Y-73243055D02*
X130911654Y-73600198D01*
X130911654Y-73600198D02*
X130840225Y-73743055D01*
X130840225Y-73743055D02*
X130768797Y-73814484D01*
X130768797Y-73814484D02*
X130625939Y-73885912D01*
X130625939Y-73885912D02*
X130268797Y-73885912D01*
X130268797Y-73885912D02*
X130125939Y-73814484D01*
X130125939Y-73814484D02*
X130054511Y-73743055D01*
X131340225Y-72385912D02*
X131840225Y-73885912D01*
X131840225Y-73885912D02*
X132340225Y-72385912D01*
X124340225Y-74872257D02*
X124197368Y-74800828D01*
X124197368Y-74800828D02*
X123983082Y-74800828D01*
X123983082Y-74800828D02*
X123768796Y-74872257D01*
X123768796Y-74872257D02*
X123625939Y-75015114D01*
X123625939Y-75015114D02*
X123554510Y-75157971D01*
X123554510Y-75157971D02*
X123483082Y-75443685D01*
X123483082Y-75443685D02*
X123483082Y-75657971D01*
X123483082Y-75657971D02*
X123554510Y-75943685D01*
X123554510Y-75943685D02*
X123625939Y-76086542D01*
X123625939Y-76086542D02*
X123768796Y-76229400D01*
X123768796Y-76229400D02*
X123983082Y-76300828D01*
X123983082Y-76300828D02*
X124125939Y-76300828D01*
X124125939Y-76300828D02*
X124340225Y-76229400D01*
X124340225Y-76229400D02*
X124411653Y-76157971D01*
X124411653Y-76157971D02*
X124411653Y-75657971D01*
X124411653Y-75657971D02*
X124125939Y-75657971D01*
X125054510Y-76300828D02*
X125054510Y-74800828D01*
X125054510Y-74800828D02*
X125911653Y-76300828D01*
X125911653Y-76300828D02*
X125911653Y-74800828D01*
X126625939Y-76300828D02*
X126625939Y-74800828D01*
X126625939Y-74800828D02*
X126983082Y-74800828D01*
X126983082Y-74800828D02*
X127197368Y-74872257D01*
X127197368Y-74872257D02*
X127340225Y-75015114D01*
X127340225Y-75015114D02*
X127411654Y-75157971D01*
X127411654Y-75157971D02*
X127483082Y-75443685D01*
X127483082Y-75443685D02*
X127483082Y-75657971D01*
X127483082Y-75657971D02*
X127411654Y-75943685D01*
X127411654Y-75943685D02*
X127340225Y-76086542D01*
X127340225Y-76086542D02*
X127197368Y-76229400D01*
X127197368Y-76229400D02*
X126983082Y-76300828D01*
X126983082Y-76300828D02*
X126625939Y-76300828D01*
X165911653Y-102385912D02*
X165411653Y-101671626D01*
X165054510Y-102385912D02*
X165054510Y-100885912D01*
X165054510Y-100885912D02*
X165625939Y-100885912D01*
X165625939Y-100885912D02*
X165768796Y-100957341D01*
X165768796Y-100957341D02*
X165840225Y-101028769D01*
X165840225Y-101028769D02*
X165911653Y-101171626D01*
X165911653Y-101171626D02*
X165911653Y-101385912D01*
X165911653Y-101385912D02*
X165840225Y-101528769D01*
X165840225Y-101528769D02*
X165768796Y-101600198D01*
X165768796Y-101600198D02*
X165625939Y-101671626D01*
X165625939Y-101671626D02*
X165054510Y-101671626D01*
X167125939Y-102314484D02*
X166983082Y-102385912D01*
X166983082Y-102385912D02*
X166697368Y-102385912D01*
X166697368Y-102385912D02*
X166554510Y-102314484D01*
X166554510Y-102314484D02*
X166483082Y-102171626D01*
X166483082Y-102171626D02*
X166483082Y-101600198D01*
X166483082Y-101600198D02*
X166554510Y-101457341D01*
X166554510Y-101457341D02*
X166697368Y-101385912D01*
X166697368Y-101385912D02*
X166983082Y-101385912D01*
X166983082Y-101385912D02*
X167125939Y-101457341D01*
X167125939Y-101457341D02*
X167197368Y-101600198D01*
X167197368Y-101600198D02*
X167197368Y-101743055D01*
X167197368Y-101743055D02*
X166483082Y-101885912D01*
X167697367Y-101385912D02*
X168054510Y-102385912D01*
X168054510Y-102385912D02*
X168411653Y-101385912D01*
X170911653Y-102385912D02*
X170054510Y-102385912D01*
X170483081Y-102385912D02*
X170483081Y-100885912D01*
X170483081Y-100885912D02*
X170340224Y-101100198D01*
X170340224Y-101100198D02*
X170197367Y-101243055D01*
X170197367Y-101243055D02*
X170054510Y-101314484D01*
X171554509Y-102243055D02*
X171625938Y-102314484D01*
X171625938Y-102314484D02*
X171554509Y-102385912D01*
X171554509Y-102385912D02*
X171483081Y-102314484D01*
X171483081Y-102314484D02*
X171554509Y-102243055D01*
X171554509Y-102243055D02*
X171554509Y-102385912D01*
X172554510Y-100885912D02*
X172697367Y-100885912D01*
X172697367Y-100885912D02*
X172840224Y-100957341D01*
X172840224Y-100957341D02*
X172911653Y-101028769D01*
X172911653Y-101028769D02*
X172983081Y-101171626D01*
X172983081Y-101171626D02*
X173054510Y-101457341D01*
X173054510Y-101457341D02*
X173054510Y-101814484D01*
X173054510Y-101814484D02*
X172983081Y-102100198D01*
X172983081Y-102100198D02*
X172911653Y-102243055D01*
X172911653Y-102243055D02*
X172840224Y-102314484D01*
X172840224Y-102314484D02*
X172697367Y-102385912D01*
X172697367Y-102385912D02*
X172554510Y-102385912D01*
X172554510Y-102385912D02*
X172411653Y-102314484D01*
X172411653Y-102314484D02*
X172340224Y-102243055D01*
X172340224Y-102243055D02*
X172268795Y-102100198D01*
X172268795Y-102100198D02*
X172197367Y-101814484D01*
X172197367Y-101814484D02*
X172197367Y-101457341D01*
X172197367Y-101457341D02*
X172268795Y-101171626D01*
X172268795Y-101171626D02*
X172340224Y-101028769D01*
X172340224Y-101028769D02*
X172411653Y-100957341D01*
X172411653Y-100957341D02*
X172554510Y-100885912D01*
X165054510Y-104800828D02*
X165054510Y-103300828D01*
X165054510Y-103300828D02*
X165411653Y-103300828D01*
X165411653Y-103300828D02*
X165625939Y-103372257D01*
X165625939Y-103372257D02*
X165768796Y-103515114D01*
X165768796Y-103515114D02*
X165840225Y-103657971D01*
X165840225Y-103657971D02*
X165911653Y-103943685D01*
X165911653Y-103943685D02*
X165911653Y-104157971D01*
X165911653Y-104157971D02*
X165840225Y-104443685D01*
X165840225Y-104443685D02*
X165768796Y-104586542D01*
X165768796Y-104586542D02*
X165625939Y-104729400D01*
X165625939Y-104729400D02*
X165411653Y-104800828D01*
X165411653Y-104800828D02*
X165054510Y-104800828D01*
X167125939Y-104729400D02*
X166983082Y-104800828D01*
X166983082Y-104800828D02*
X166697368Y-104800828D01*
X166697368Y-104800828D02*
X166554510Y-104729400D01*
X166554510Y-104729400D02*
X166483082Y-104586542D01*
X166483082Y-104586542D02*
X166483082Y-104015114D01*
X166483082Y-104015114D02*
X166554510Y-103872257D01*
X166554510Y-103872257D02*
X166697368Y-103800828D01*
X166697368Y-103800828D02*
X166983082Y-103800828D01*
X166983082Y-103800828D02*
X167125939Y-103872257D01*
X167125939Y-103872257D02*
X167197368Y-104015114D01*
X167197368Y-104015114D02*
X167197368Y-104157971D01*
X167197368Y-104157971D02*
X166483082Y-104300828D01*
X167768796Y-104729400D02*
X167911653Y-104800828D01*
X167911653Y-104800828D02*
X168197367Y-104800828D01*
X168197367Y-104800828D02*
X168340224Y-104729400D01*
X168340224Y-104729400D02*
X168411653Y-104586542D01*
X168411653Y-104586542D02*
X168411653Y-104515114D01*
X168411653Y-104515114D02*
X168340224Y-104372257D01*
X168340224Y-104372257D02*
X168197367Y-104300828D01*
X168197367Y-104300828D02*
X167983082Y-104300828D01*
X167983082Y-104300828D02*
X167840224Y-104229400D01*
X167840224Y-104229400D02*
X167768796Y-104086542D01*
X167768796Y-104086542D02*
X167768796Y-104015114D01*
X167768796Y-104015114D02*
X167840224Y-103872257D01*
X167840224Y-103872257D02*
X167983082Y-103800828D01*
X167983082Y-103800828D02*
X168197367Y-103800828D01*
X168197367Y-103800828D02*
X168340224Y-103872257D01*
X169054510Y-104800828D02*
X169054510Y-103800828D01*
X169054510Y-103300828D02*
X168983082Y-103372257D01*
X168983082Y-103372257D02*
X169054510Y-103443685D01*
X169054510Y-103443685D02*
X169125939Y-103372257D01*
X169125939Y-103372257D02*
X169054510Y-103300828D01*
X169054510Y-103300828D02*
X169054510Y-103443685D01*
X170411654Y-103800828D02*
X170411654Y-105015114D01*
X170411654Y-105015114D02*
X170340225Y-105157971D01*
X170340225Y-105157971D02*
X170268796Y-105229400D01*
X170268796Y-105229400D02*
X170125939Y-105300828D01*
X170125939Y-105300828D02*
X169911654Y-105300828D01*
X169911654Y-105300828D02*
X169768796Y-105229400D01*
X170411654Y-104729400D02*
X170268796Y-104800828D01*
X170268796Y-104800828D02*
X169983082Y-104800828D01*
X169983082Y-104800828D02*
X169840225Y-104729400D01*
X169840225Y-104729400D02*
X169768796Y-104657971D01*
X169768796Y-104657971D02*
X169697368Y-104515114D01*
X169697368Y-104515114D02*
X169697368Y-104086542D01*
X169697368Y-104086542D02*
X169768796Y-103943685D01*
X169768796Y-103943685D02*
X169840225Y-103872257D01*
X169840225Y-103872257D02*
X169983082Y-103800828D01*
X169983082Y-103800828D02*
X170268796Y-103800828D01*
X170268796Y-103800828D02*
X170411654Y-103872257D01*
X171125939Y-103800828D02*
X171125939Y-104800828D01*
X171125939Y-103943685D02*
X171197368Y-103872257D01*
X171197368Y-103872257D02*
X171340225Y-103800828D01*
X171340225Y-103800828D02*
X171554511Y-103800828D01*
X171554511Y-103800828D02*
X171697368Y-103872257D01*
X171697368Y-103872257D02*
X171768797Y-104015114D01*
X171768797Y-104015114D02*
X171768797Y-104800828D01*
X173054511Y-104729400D02*
X172911654Y-104800828D01*
X172911654Y-104800828D02*
X172625940Y-104800828D01*
X172625940Y-104800828D02*
X172483082Y-104729400D01*
X172483082Y-104729400D02*
X172411654Y-104586542D01*
X172411654Y-104586542D02*
X172411654Y-104015114D01*
X172411654Y-104015114D02*
X172483082Y-103872257D01*
X172483082Y-103872257D02*
X172625940Y-103800828D01*
X172625940Y-103800828D02*
X172911654Y-103800828D01*
X172911654Y-103800828D02*
X173054511Y-103872257D01*
X173054511Y-103872257D02*
X173125940Y-104015114D01*
X173125940Y-104015114D02*
X173125940Y-104157971D01*
X173125940Y-104157971D02*
X172411654Y-104300828D01*
X174411654Y-104800828D02*
X174411654Y-103300828D01*
X174411654Y-104729400D02*
X174268796Y-104800828D01*
X174268796Y-104800828D02*
X173983082Y-104800828D01*
X173983082Y-104800828D02*
X173840225Y-104729400D01*
X173840225Y-104729400D02*
X173768796Y-104657971D01*
X173768796Y-104657971D02*
X173697368Y-104515114D01*
X173697368Y-104515114D02*
X173697368Y-104086542D01*
X173697368Y-104086542D02*
X173768796Y-103943685D01*
X173768796Y-103943685D02*
X173840225Y-103872257D01*
X173840225Y-103872257D02*
X173983082Y-103800828D01*
X173983082Y-103800828D02*
X174268796Y-103800828D01*
X174268796Y-103800828D02*
X174411654Y-103872257D01*
X176268796Y-104800828D02*
X176268796Y-103300828D01*
X176268796Y-103872257D02*
X176411654Y-103800828D01*
X176411654Y-103800828D02*
X176697368Y-103800828D01*
X176697368Y-103800828D02*
X176840225Y-103872257D01*
X176840225Y-103872257D02*
X176911654Y-103943685D01*
X176911654Y-103943685D02*
X176983082Y-104086542D01*
X176983082Y-104086542D02*
X176983082Y-104515114D01*
X176983082Y-104515114D02*
X176911654Y-104657971D01*
X176911654Y-104657971D02*
X176840225Y-104729400D01*
X176840225Y-104729400D02*
X176697368Y-104800828D01*
X176697368Y-104800828D02*
X176411654Y-104800828D01*
X176411654Y-104800828D02*
X176268796Y-104729400D01*
X177483082Y-103800828D02*
X177840225Y-104800828D01*
X178197368Y-103800828D02*
X177840225Y-104800828D01*
X177840225Y-104800828D02*
X177697368Y-105157971D01*
X177697368Y-105157971D02*
X177625939Y-105229400D01*
X177625939Y-105229400D02*
X177483082Y-105300828D01*
X179840225Y-104372257D02*
X180554511Y-104372257D01*
X179697368Y-104800828D02*
X180197368Y-103300828D01*
X180197368Y-103300828D02*
X180697368Y-104800828D01*
X181197367Y-103800828D02*
X181197367Y-104800828D01*
X181197367Y-103943685D02*
X181268796Y-103872257D01*
X181268796Y-103872257D02*
X181411653Y-103800828D01*
X181411653Y-103800828D02*
X181625939Y-103800828D01*
X181625939Y-103800828D02*
X181768796Y-103872257D01*
X181768796Y-103872257D02*
X181840225Y-104015114D01*
X181840225Y-104015114D02*
X181840225Y-104800828D01*
X183197368Y-103800828D02*
X183197368Y-104800828D01*
X182554510Y-103800828D02*
X182554510Y-104586542D01*
X182554510Y-104586542D02*
X182625939Y-104729400D01*
X182625939Y-104729400D02*
X182768796Y-104800828D01*
X182768796Y-104800828D02*
X182983082Y-104800828D01*
X182983082Y-104800828D02*
X183125939Y-104729400D01*
X183125939Y-104729400D02*
X183197368Y-104657971D01*
X184983082Y-104729400D02*
X185197368Y-104800828D01*
X185197368Y-104800828D02*
X185554510Y-104800828D01*
X185554510Y-104800828D02*
X185697368Y-104729400D01*
X185697368Y-104729400D02*
X185768796Y-104657971D01*
X185768796Y-104657971D02*
X185840225Y-104515114D01*
X185840225Y-104515114D02*
X185840225Y-104372257D01*
X185840225Y-104372257D02*
X185768796Y-104229400D01*
X185768796Y-104229400D02*
X185697368Y-104157971D01*
X185697368Y-104157971D02*
X185554510Y-104086542D01*
X185554510Y-104086542D02*
X185268796Y-104015114D01*
X185268796Y-104015114D02*
X185125939Y-103943685D01*
X185125939Y-103943685D02*
X185054510Y-103872257D01*
X185054510Y-103872257D02*
X184983082Y-103729400D01*
X184983082Y-103729400D02*
X184983082Y-103586542D01*
X184983082Y-103586542D02*
X185054510Y-103443685D01*
X185054510Y-103443685D02*
X185125939Y-103372257D01*
X185125939Y-103372257D02*
X185268796Y-103300828D01*
X185268796Y-103300828D02*
X185625939Y-103300828D01*
X185625939Y-103300828D02*
X185840225Y-103372257D01*
X187125939Y-104800828D02*
X187125939Y-104015114D01*
X187125939Y-104015114D02*
X187054510Y-103872257D01*
X187054510Y-103872257D02*
X186911653Y-103800828D01*
X186911653Y-103800828D02*
X186625939Y-103800828D01*
X186625939Y-103800828D02*
X186483081Y-103872257D01*
X187125939Y-104729400D02*
X186983081Y-104800828D01*
X186983081Y-104800828D02*
X186625939Y-104800828D01*
X186625939Y-104800828D02*
X186483081Y-104729400D01*
X186483081Y-104729400D02*
X186411653Y-104586542D01*
X186411653Y-104586542D02*
X186411653Y-104443685D01*
X186411653Y-104443685D02*
X186483081Y-104300828D01*
X186483081Y-104300828D02*
X186625939Y-104229400D01*
X186625939Y-104229400D02*
X186983081Y-104229400D01*
X186983081Y-104229400D02*
X187125939Y-104157971D01*
X187840224Y-104800828D02*
X187840224Y-103300828D01*
X188483082Y-104800828D02*
X188483082Y-104015114D01*
X188483082Y-104015114D02*
X188411653Y-103872257D01*
X188411653Y-103872257D02*
X188268796Y-103800828D01*
X188268796Y-103800828D02*
X188054510Y-103800828D01*
X188054510Y-103800828D02*
X187911653Y-103872257D01*
X187911653Y-103872257D02*
X187840224Y-103943685D01*
X189840225Y-104800828D02*
X189840225Y-104015114D01*
X189840225Y-104015114D02*
X189768796Y-103872257D01*
X189768796Y-103872257D02*
X189625939Y-103800828D01*
X189625939Y-103800828D02*
X189340225Y-103800828D01*
X189340225Y-103800828D02*
X189197367Y-103872257D01*
X189840225Y-104729400D02*
X189697367Y-104800828D01*
X189697367Y-104800828D02*
X189340225Y-104800828D01*
X189340225Y-104800828D02*
X189197367Y-104729400D01*
X189197367Y-104729400D02*
X189125939Y-104586542D01*
X189125939Y-104586542D02*
X189125939Y-104443685D01*
X189125939Y-104443685D02*
X189197367Y-104300828D01*
X189197367Y-104300828D02*
X189340225Y-104229400D01*
X189340225Y-104229400D02*
X189697367Y-104229400D01*
X189697367Y-104229400D02*
X189840225Y-104157971D01*
X146268796Y-59800828D02*
X145554510Y-59800828D01*
X145554510Y-59800828D02*
X145483082Y-60515114D01*
X145483082Y-60515114D02*
X145554510Y-60443685D01*
X145554510Y-60443685D02*
X145697368Y-60372257D01*
X145697368Y-60372257D02*
X146054510Y-60372257D01*
X146054510Y-60372257D02*
X146197368Y-60443685D01*
X146197368Y-60443685D02*
X146268796Y-60515114D01*
X146268796Y-60515114D02*
X146340225Y-60657971D01*
X146340225Y-60657971D02*
X146340225Y-61015114D01*
X146340225Y-61015114D02*
X146268796Y-61157971D01*
X146268796Y-61157971D02*
X146197368Y-61229400D01*
X146197368Y-61229400D02*
X146054510Y-61300828D01*
X146054510Y-61300828D02*
X145697368Y-61300828D01*
X145697368Y-61300828D02*
X145554510Y-61229400D01*
X145554510Y-61229400D02*
X145483082Y-61157971D01*
X146768796Y-59800828D02*
X147268796Y-61300828D01*
X147268796Y-61300828D02*
X147768796Y-59800828D01*
X149197367Y-60300828D02*
X149768795Y-60300828D01*
X149411652Y-59800828D02*
X149411652Y-61086542D01*
X149411652Y-61086542D02*
X149483081Y-61229400D01*
X149483081Y-61229400D02*
X149625938Y-61300828D01*
X149625938Y-61300828D02*
X149768795Y-61300828D01*
X150483081Y-61300828D02*
X150340224Y-61229400D01*
X150340224Y-61229400D02*
X150268795Y-61157971D01*
X150268795Y-61157971D02*
X150197367Y-61015114D01*
X150197367Y-61015114D02*
X150197367Y-60586542D01*
X150197367Y-60586542D02*
X150268795Y-60443685D01*
X150268795Y-60443685D02*
X150340224Y-60372257D01*
X150340224Y-60372257D02*
X150483081Y-60300828D01*
X150483081Y-60300828D02*
X150697367Y-60300828D01*
X150697367Y-60300828D02*
X150840224Y-60372257D01*
X150840224Y-60372257D02*
X150911653Y-60443685D01*
X150911653Y-60443685D02*
X150983081Y-60586542D01*
X150983081Y-60586542D02*
X150983081Y-61015114D01*
X150983081Y-61015114D02*
X150911653Y-61157971D01*
X150911653Y-61157971D02*
X150840224Y-61229400D01*
X150840224Y-61229400D02*
X150697367Y-61300828D01*
X150697367Y-61300828D02*
X150483081Y-61300828D01*
X152625938Y-59800828D02*
X153554510Y-59800828D01*
X153554510Y-59800828D02*
X153054510Y-60372257D01*
X153054510Y-60372257D02*
X153268795Y-60372257D01*
X153268795Y-60372257D02*
X153411653Y-60443685D01*
X153411653Y-60443685D02*
X153483081Y-60515114D01*
X153483081Y-60515114D02*
X153554510Y-60657971D01*
X153554510Y-60657971D02*
X153554510Y-61015114D01*
X153554510Y-61015114D02*
X153483081Y-61157971D01*
X153483081Y-61157971D02*
X153411653Y-61229400D01*
X153411653Y-61229400D02*
X153268795Y-61300828D01*
X153268795Y-61300828D02*
X152840224Y-61300828D01*
X152840224Y-61300828D02*
X152697367Y-61229400D01*
X152697367Y-61229400D02*
X152625938Y-61157971D01*
X154197366Y-61157971D02*
X154268795Y-61229400D01*
X154268795Y-61229400D02*
X154197366Y-61300828D01*
X154197366Y-61300828D02*
X154125938Y-61229400D01*
X154125938Y-61229400D02*
X154197366Y-61157971D01*
X154197366Y-61157971D02*
X154197366Y-61300828D01*
X154768795Y-59800828D02*
X155697367Y-59800828D01*
X155697367Y-59800828D02*
X155197367Y-60372257D01*
X155197367Y-60372257D02*
X155411652Y-60372257D01*
X155411652Y-60372257D02*
X155554510Y-60443685D01*
X155554510Y-60443685D02*
X155625938Y-60515114D01*
X155625938Y-60515114D02*
X155697367Y-60657971D01*
X155697367Y-60657971D02*
X155697367Y-61015114D01*
X155697367Y-61015114D02*
X155625938Y-61157971D01*
X155625938Y-61157971D02*
X155554510Y-61229400D01*
X155554510Y-61229400D02*
X155411652Y-61300828D01*
X155411652Y-61300828D02*
X154983081Y-61300828D01*
X154983081Y-61300828D02*
X154840224Y-61229400D01*
X154840224Y-61229400D02*
X154768795Y-61157971D01*
X156125938Y-59800828D02*
X156625938Y-61300828D01*
X156625938Y-61300828D02*
X157125938Y-59800828D01*
X158768794Y-61300828D02*
X158768794Y-59800828D01*
X158768794Y-59800828D02*
X159340223Y-59800828D01*
X159340223Y-59800828D02*
X159483080Y-59872257D01*
X159483080Y-59872257D02*
X159554509Y-59943685D01*
X159554509Y-59943685D02*
X159625937Y-60086542D01*
X159625937Y-60086542D02*
X159625937Y-60300828D01*
X159625937Y-60300828D02*
X159554509Y-60443685D01*
X159554509Y-60443685D02*
X159483080Y-60515114D01*
X159483080Y-60515114D02*
X159340223Y-60586542D01*
X159340223Y-60586542D02*
X158768794Y-60586542D01*
X160483080Y-61300828D02*
X160340223Y-61229400D01*
X160340223Y-61229400D02*
X160268794Y-61157971D01*
X160268794Y-61157971D02*
X160197366Y-61015114D01*
X160197366Y-61015114D02*
X160197366Y-60586542D01*
X160197366Y-60586542D02*
X160268794Y-60443685D01*
X160268794Y-60443685D02*
X160340223Y-60372257D01*
X160340223Y-60372257D02*
X160483080Y-60300828D01*
X160483080Y-60300828D02*
X160697366Y-60300828D01*
X160697366Y-60300828D02*
X160840223Y-60372257D01*
X160840223Y-60372257D02*
X160911652Y-60443685D01*
X160911652Y-60443685D02*
X160983080Y-60586542D01*
X160983080Y-60586542D02*
X160983080Y-61015114D01*
X160983080Y-61015114D02*
X160911652Y-61157971D01*
X160911652Y-61157971D02*
X160840223Y-61229400D01*
X160840223Y-61229400D02*
X160697366Y-61300828D01*
X160697366Y-61300828D02*
X160483080Y-61300828D01*
X161483080Y-60300828D02*
X161768795Y-61300828D01*
X161768795Y-61300828D02*
X162054509Y-60586542D01*
X162054509Y-60586542D02*
X162340223Y-61300828D01*
X162340223Y-61300828D02*
X162625937Y-60300828D01*
X163768795Y-61229400D02*
X163625938Y-61300828D01*
X163625938Y-61300828D02*
X163340224Y-61300828D01*
X163340224Y-61300828D02*
X163197366Y-61229400D01*
X163197366Y-61229400D02*
X163125938Y-61086542D01*
X163125938Y-61086542D02*
X163125938Y-60515114D01*
X163125938Y-60515114D02*
X163197366Y-60372257D01*
X163197366Y-60372257D02*
X163340224Y-60300828D01*
X163340224Y-60300828D02*
X163625938Y-60300828D01*
X163625938Y-60300828D02*
X163768795Y-60372257D01*
X163768795Y-60372257D02*
X163840224Y-60515114D01*
X163840224Y-60515114D02*
X163840224Y-60657971D01*
X163840224Y-60657971D02*
X163125938Y-60800828D01*
X164483080Y-61300828D02*
X164483080Y-60300828D01*
X164483080Y-60586542D02*
X164554509Y-60443685D01*
X164554509Y-60443685D02*
X164625938Y-60372257D01*
X164625938Y-60372257D02*
X164768795Y-60300828D01*
X164768795Y-60300828D02*
X164911652Y-60300828D01*
X166554508Y-61300828D02*
X166554508Y-59800828D01*
X166554508Y-59800828D02*
X167054508Y-60872257D01*
X167054508Y-60872257D02*
X167554508Y-59800828D01*
X167554508Y-59800828D02*
X167554508Y-61300828D01*
X168483080Y-61300828D02*
X168340223Y-61229400D01*
X168340223Y-61229400D02*
X168268794Y-61157971D01*
X168268794Y-61157971D02*
X168197366Y-61015114D01*
X168197366Y-61015114D02*
X168197366Y-60586542D01*
X168197366Y-60586542D02*
X168268794Y-60443685D01*
X168268794Y-60443685D02*
X168340223Y-60372257D01*
X168340223Y-60372257D02*
X168483080Y-60300828D01*
X168483080Y-60300828D02*
X168697366Y-60300828D01*
X168697366Y-60300828D02*
X168840223Y-60372257D01*
X168840223Y-60372257D02*
X168911652Y-60443685D01*
X168911652Y-60443685D02*
X168983080Y-60586542D01*
X168983080Y-60586542D02*
X168983080Y-61015114D01*
X168983080Y-61015114D02*
X168911652Y-61157971D01*
X168911652Y-61157971D02*
X168840223Y-61229400D01*
X168840223Y-61229400D02*
X168697366Y-61300828D01*
X168697366Y-61300828D02*
X168483080Y-61300828D01*
X170268795Y-61300828D02*
X170268795Y-59800828D01*
X170268795Y-61229400D02*
X170125937Y-61300828D01*
X170125937Y-61300828D02*
X169840223Y-61300828D01*
X169840223Y-61300828D02*
X169697366Y-61229400D01*
X169697366Y-61229400D02*
X169625937Y-61157971D01*
X169625937Y-61157971D02*
X169554509Y-61015114D01*
X169554509Y-61015114D02*
X169554509Y-60586542D01*
X169554509Y-60586542D02*
X169625937Y-60443685D01*
X169625937Y-60443685D02*
X169697366Y-60372257D01*
X169697366Y-60372257D02*
X169840223Y-60300828D01*
X169840223Y-60300828D02*
X170125937Y-60300828D01*
X170125937Y-60300828D02*
X170268795Y-60372257D01*
X171625938Y-60300828D02*
X171625938Y-61300828D01*
X170983080Y-60300828D02*
X170983080Y-61086542D01*
X170983080Y-61086542D02*
X171054509Y-61229400D01*
X171054509Y-61229400D02*
X171197366Y-61300828D01*
X171197366Y-61300828D02*
X171411652Y-61300828D01*
X171411652Y-61300828D02*
X171554509Y-61229400D01*
X171554509Y-61229400D02*
X171625938Y-61157971D01*
X172554509Y-61300828D02*
X172411652Y-61229400D01*
X172411652Y-61229400D02*
X172340223Y-61086542D01*
X172340223Y-61086542D02*
X172340223Y-59800828D01*
X173697366Y-61229400D02*
X173554509Y-61300828D01*
X173554509Y-61300828D02*
X173268795Y-61300828D01*
X173268795Y-61300828D02*
X173125937Y-61229400D01*
X173125937Y-61229400D02*
X173054509Y-61086542D01*
X173054509Y-61086542D02*
X173054509Y-60515114D01*
X173054509Y-60515114D02*
X173125937Y-60372257D01*
X173125937Y-60372257D02*
X173268795Y-60300828D01*
X173268795Y-60300828D02*
X173554509Y-60300828D01*
X173554509Y-60300828D02*
X173697366Y-60372257D01*
X173697366Y-60372257D02*
X173768795Y-60515114D01*
X173768795Y-60515114D02*
X173768795Y-60657971D01*
X173768795Y-60657971D02*
X173054509Y-60800828D01*
X185340225Y-72885912D02*
X185840225Y-74385912D01*
X185840225Y-74385912D02*
X186340225Y-72885912D01*
X187125939Y-72885912D02*
X187411653Y-72885912D01*
X187411653Y-72885912D02*
X187554510Y-72957341D01*
X187554510Y-72957341D02*
X187697367Y-73100198D01*
X187697367Y-73100198D02*
X187768796Y-73385912D01*
X187768796Y-73385912D02*
X187768796Y-73885912D01*
X187768796Y-73885912D02*
X187697367Y-74171626D01*
X187697367Y-74171626D02*
X187554510Y-74314484D01*
X187554510Y-74314484D02*
X187411653Y-74385912D01*
X187411653Y-74385912D02*
X187125939Y-74385912D01*
X187125939Y-74385912D02*
X186983082Y-74314484D01*
X186983082Y-74314484D02*
X186840224Y-74171626D01*
X186840224Y-74171626D02*
X186768796Y-73885912D01*
X186768796Y-73885912D02*
X186768796Y-73385912D01*
X186768796Y-73385912D02*
X186840224Y-73100198D01*
X186840224Y-73100198D02*
X186983082Y-72957341D01*
X186983082Y-72957341D02*
X187125939Y-72885912D01*
X188411653Y-72885912D02*
X188411653Y-74100198D01*
X188411653Y-74100198D02*
X188483082Y-74243055D01*
X188483082Y-74243055D02*
X188554511Y-74314484D01*
X188554511Y-74314484D02*
X188697368Y-74385912D01*
X188697368Y-74385912D02*
X188983082Y-74385912D01*
X188983082Y-74385912D02*
X189125939Y-74314484D01*
X189125939Y-74314484D02*
X189197368Y-74243055D01*
X189197368Y-74243055D02*
X189268796Y-74100198D01*
X189268796Y-74100198D02*
X189268796Y-72885912D01*
X189768797Y-72885912D02*
X190625940Y-72885912D01*
X190197368Y-74385912D02*
X190197368Y-72885912D01*
X192268796Y-73814484D02*
X193411654Y-73814484D01*
X192840225Y-74385912D02*
X192840225Y-73243055D01*
X193983082Y-72885912D02*
X194911654Y-72885912D01*
X194911654Y-72885912D02*
X194411654Y-73457341D01*
X194411654Y-73457341D02*
X194625939Y-73457341D01*
X194625939Y-73457341D02*
X194768797Y-73528769D01*
X194768797Y-73528769D02*
X194840225Y-73600198D01*
X194840225Y-73600198D02*
X194911654Y-73743055D01*
X194911654Y-73743055D02*
X194911654Y-74100198D01*
X194911654Y-74100198D02*
X194840225Y-74243055D01*
X194840225Y-74243055D02*
X194768797Y-74314484D01*
X194768797Y-74314484D02*
X194625939Y-74385912D01*
X194625939Y-74385912D02*
X194197368Y-74385912D01*
X194197368Y-74385912D02*
X194054511Y-74314484D01*
X194054511Y-74314484D02*
X193983082Y-74243055D01*
X195554510Y-74243055D02*
X195625939Y-74314484D01*
X195625939Y-74314484D02*
X195554510Y-74385912D01*
X195554510Y-74385912D02*
X195483082Y-74314484D01*
X195483082Y-74314484D02*
X195554510Y-74243055D01*
X195554510Y-74243055D02*
X195554510Y-74385912D01*
X196125939Y-72885912D02*
X197054511Y-72885912D01*
X197054511Y-72885912D02*
X196554511Y-73457341D01*
X196554511Y-73457341D02*
X196768796Y-73457341D01*
X196768796Y-73457341D02*
X196911654Y-73528769D01*
X196911654Y-73528769D02*
X196983082Y-73600198D01*
X196983082Y-73600198D02*
X197054511Y-73743055D01*
X197054511Y-73743055D02*
X197054511Y-74100198D01*
X197054511Y-74100198D02*
X196983082Y-74243055D01*
X196983082Y-74243055D02*
X196911654Y-74314484D01*
X196911654Y-74314484D02*
X196768796Y-74385912D01*
X196768796Y-74385912D02*
X196340225Y-74385912D01*
X196340225Y-74385912D02*
X196197368Y-74314484D01*
X196197368Y-74314484D02*
X196125939Y-74243055D01*
X197483082Y-72885912D02*
X197983082Y-74385912D01*
X197983082Y-74385912D02*
X198483082Y-72885912D01*
X186340225Y-75372257D02*
X186197368Y-75300828D01*
X186197368Y-75300828D02*
X185983082Y-75300828D01*
X185983082Y-75300828D02*
X185768796Y-75372257D01*
X185768796Y-75372257D02*
X185625939Y-75515114D01*
X185625939Y-75515114D02*
X185554510Y-75657971D01*
X185554510Y-75657971D02*
X185483082Y-75943685D01*
X185483082Y-75943685D02*
X185483082Y-76157971D01*
X185483082Y-76157971D02*
X185554510Y-76443685D01*
X185554510Y-76443685D02*
X185625939Y-76586542D01*
X185625939Y-76586542D02*
X185768796Y-76729400D01*
X185768796Y-76729400D02*
X185983082Y-76800828D01*
X185983082Y-76800828D02*
X186125939Y-76800828D01*
X186125939Y-76800828D02*
X186340225Y-76729400D01*
X186340225Y-76729400D02*
X186411653Y-76657971D01*
X186411653Y-76657971D02*
X186411653Y-76157971D01*
X186411653Y-76157971D02*
X186125939Y-76157971D01*
X187054510Y-76800828D02*
X187054510Y-75300828D01*
X187054510Y-75300828D02*
X187911653Y-76800828D01*
X187911653Y-76800828D02*
X187911653Y-75300828D01*
X188625939Y-76800828D02*
X188625939Y-75300828D01*
X188625939Y-75300828D02*
X188983082Y-75300828D01*
X188983082Y-75300828D02*
X189197368Y-75372257D01*
X189197368Y-75372257D02*
X189340225Y-75515114D01*
X189340225Y-75515114D02*
X189411654Y-75657971D01*
X189411654Y-75657971D02*
X189483082Y-75943685D01*
X189483082Y-75943685D02*
X189483082Y-76157971D01*
X189483082Y-76157971D02*
X189411654Y-76443685D01*
X189411654Y-76443685D02*
X189340225Y-76586542D01*
X189340225Y-76586542D02*
X189197368Y-76729400D01*
X189197368Y-76729400D02*
X188983082Y-76800828D01*
X188983082Y-76800828D02*
X188625939Y-76800828D01*
D11*
X167383333Y-82179580D02*
X167335714Y-82227200D01*
X167335714Y-82227200D02*
X167192857Y-82274819D01*
X167192857Y-82274819D02*
X167097619Y-82274819D01*
X167097619Y-82274819D02*
X166954762Y-82227200D01*
X166954762Y-82227200D02*
X166859524Y-82131961D01*
X166859524Y-82131961D02*
X166811905Y-82036723D01*
X166811905Y-82036723D02*
X166764286Y-81846247D01*
X166764286Y-81846247D02*
X166764286Y-81703390D01*
X166764286Y-81703390D02*
X166811905Y-81512914D01*
X166811905Y-81512914D02*
X166859524Y-81417676D01*
X166859524Y-81417676D02*
X166954762Y-81322438D01*
X166954762Y-81322438D02*
X167097619Y-81274819D01*
X167097619Y-81274819D02*
X167192857Y-81274819D01*
X167192857Y-81274819D02*
X167335714Y-81322438D01*
X167335714Y-81322438D02*
X167383333Y-81370057D01*
X167764286Y-81370057D02*
X167811905Y-81322438D01*
X167811905Y-81322438D02*
X167907143Y-81274819D01*
X167907143Y-81274819D02*
X168145238Y-81274819D01*
X168145238Y-81274819D02*
X168240476Y-81322438D01*
X168240476Y-81322438D02*
X168288095Y-81370057D01*
X168288095Y-81370057D02*
X168335714Y-81465295D01*
X168335714Y-81465295D02*
X168335714Y-81560533D01*
X168335714Y-81560533D02*
X168288095Y-81703390D01*
X168288095Y-81703390D02*
X167716667Y-82274819D01*
X167716667Y-82274819D02*
X168335714Y-82274819D01*
X150383333Y-81679580D02*
X150335714Y-81727200D01*
X150335714Y-81727200D02*
X150192857Y-81774819D01*
X150192857Y-81774819D02*
X150097619Y-81774819D01*
X150097619Y-81774819D02*
X149954762Y-81727200D01*
X149954762Y-81727200D02*
X149859524Y-81631961D01*
X149859524Y-81631961D02*
X149811905Y-81536723D01*
X149811905Y-81536723D02*
X149764286Y-81346247D01*
X149764286Y-81346247D02*
X149764286Y-81203390D01*
X149764286Y-81203390D02*
X149811905Y-81012914D01*
X149811905Y-81012914D02*
X149859524Y-80917676D01*
X149859524Y-80917676D02*
X149954762Y-80822438D01*
X149954762Y-80822438D02*
X150097619Y-80774819D01*
X150097619Y-80774819D02*
X150192857Y-80774819D01*
X150192857Y-80774819D02*
X150335714Y-80822438D01*
X150335714Y-80822438D02*
X150383333Y-80870057D01*
X151335714Y-81774819D02*
X150764286Y-81774819D01*
X151050000Y-81774819D02*
X151050000Y-80774819D01*
X151050000Y-80774819D02*
X150954762Y-80917676D01*
X150954762Y-80917676D02*
X150859524Y-81012914D01*
X150859524Y-81012914D02*
X150764286Y-81060533D01*
X157588095Y-66954819D02*
X157588095Y-67764342D01*
X157588095Y-67764342D02*
X157635714Y-67859580D01*
X157635714Y-67859580D02*
X157683333Y-67907200D01*
X157683333Y-67907200D02*
X157778571Y-67954819D01*
X157778571Y-67954819D02*
X157969047Y-67954819D01*
X157969047Y-67954819D02*
X158064285Y-67907200D01*
X158064285Y-67907200D02*
X158111904Y-67859580D01*
X158111904Y-67859580D02*
X158159523Y-67764342D01*
X158159523Y-67764342D02*
X158159523Y-66954819D01*
X159159523Y-67954819D02*
X158588095Y-67954819D01*
X158873809Y-67954819D02*
X158873809Y-66954819D01*
X158873809Y-66954819D02*
X158778571Y-67097676D01*
X158778571Y-67097676D02*
X158683333Y-67192914D01*
X158683333Y-67192914D02*
X158588095Y-67240533D01*
X142626666Y-68874819D02*
X142626666Y-69589104D01*
X142626666Y-69589104D02*
X142579047Y-69731961D01*
X142579047Y-69731961D02*
X142483809Y-69827200D01*
X142483809Y-69827200D02*
X142340952Y-69874819D01*
X142340952Y-69874819D02*
X142245714Y-69874819D01*
X143626666Y-69874819D02*
X143055238Y-69874819D01*
X143340952Y-69874819D02*
X143340952Y-68874819D01*
X143340952Y-68874819D02*
X143245714Y-69017676D01*
X143245714Y-69017676D02*
X143150476Y-69112914D01*
X143150476Y-69112914D02*
X143055238Y-69160533D01*
X175324405Y-90304819D02*
X175324405Y-89304819D01*
X175324405Y-89304819D02*
X175562500Y-89304819D01*
X175562500Y-89304819D02*
X175705357Y-89352438D01*
X175705357Y-89352438D02*
X175800595Y-89447676D01*
X175800595Y-89447676D02*
X175848214Y-89542914D01*
X175848214Y-89542914D02*
X175895833Y-89733390D01*
X175895833Y-89733390D02*
X175895833Y-89876247D01*
X175895833Y-89876247D02*
X175848214Y-90066723D01*
X175848214Y-90066723D02*
X175800595Y-90161961D01*
X175800595Y-90161961D02*
X175705357Y-90257200D01*
X175705357Y-90257200D02*
X175562500Y-90304819D01*
X175562500Y-90304819D02*
X175324405Y-90304819D01*
X176848214Y-90304819D02*
X176276786Y-90304819D01*
X176562500Y-90304819D02*
X176562500Y-89304819D01*
X176562500Y-89304819D02*
X176467262Y-89447676D01*
X176467262Y-89447676D02*
X176372024Y-89542914D01*
X176372024Y-89542914D02*
X176276786Y-89590533D01*
X175745833Y-82954819D02*
X175412500Y-82478628D01*
X175174405Y-82954819D02*
X175174405Y-81954819D01*
X175174405Y-81954819D02*
X175555357Y-81954819D01*
X175555357Y-81954819D02*
X175650595Y-82002438D01*
X175650595Y-82002438D02*
X175698214Y-82050057D01*
X175698214Y-82050057D02*
X175745833Y-82145295D01*
X175745833Y-82145295D02*
X175745833Y-82288152D01*
X175745833Y-82288152D02*
X175698214Y-82383390D01*
X175698214Y-82383390D02*
X175650595Y-82431009D01*
X175650595Y-82431009D02*
X175555357Y-82478628D01*
X175555357Y-82478628D02*
X175174405Y-82478628D01*
X176698214Y-82954819D02*
X176126786Y-82954819D01*
X176412500Y-82954819D02*
X176412500Y-81954819D01*
X176412500Y-81954819D02*
X176317262Y-82097676D01*
X176317262Y-82097676D02*
X176222024Y-82192914D01*
X176222024Y-82192914D02*
X176126786Y-82240533D01*
X173191666Y-70244819D02*
X173191666Y-70959104D01*
X173191666Y-70959104D02*
X173144047Y-71101961D01*
X173144047Y-71101961D02*
X173048809Y-71197200D01*
X173048809Y-71197200D02*
X172905952Y-71244819D01*
X172905952Y-71244819D02*
X172810714Y-71244819D01*
X173620238Y-70340057D02*
X173667857Y-70292438D01*
X173667857Y-70292438D02*
X173763095Y-70244819D01*
X173763095Y-70244819D02*
X174001190Y-70244819D01*
X174001190Y-70244819D02*
X174096428Y-70292438D01*
X174096428Y-70292438D02*
X174144047Y-70340057D01*
X174144047Y-70340057D02*
X174191666Y-70435295D01*
X174191666Y-70435295D02*
X174191666Y-70530533D01*
X174191666Y-70530533D02*
X174144047Y-70673390D01*
X174144047Y-70673390D02*
X173572619Y-71244819D01*
X173572619Y-71244819D02*
X174191666Y-71244819D01*
D12*
%TO.C,C2*%
X167288748Y-82765000D02*
X167811252Y-82765000D01*
X167288748Y-84235000D02*
X167811252Y-84235000D01*
%TO.C,C1*%
X150288748Y-82265000D02*
X150811252Y-82265000D01*
X150288748Y-83735000D02*
X150811252Y-83735000D01*
%TO.C,U1*%
X157000000Y-69590000D02*
X160760000Y-69590000D01*
X157000000Y-76410000D02*
X160760000Y-76410000D01*
X160760000Y-69590000D02*
X160760000Y-70850000D01*
X160760000Y-76410000D02*
X160760000Y-75150000D01*
X155720000Y-69690000D02*
X155480000Y-69360000D01*
X155960000Y-69360000D01*
X155720000Y-69690000D01*
G36*
X155720000Y-69690000D02*
G01*
X155480000Y-69360000D01*
X155960000Y-69360000D01*
X155720000Y-69690000D01*
G37*
%TO.C,J1*%
X137880000Y-70690000D02*
X137880000Y-78310000D01*
X137880000Y-78310000D02*
X148040000Y-78310000D01*
X148040000Y-70690000D02*
X137880000Y-70690000D01*
X148040000Y-77040000D02*
X137880000Y-77040000D01*
X148040000Y-78310000D02*
X148040000Y-70690000D01*
%TO.C,D1*%
X174377500Y-90540000D02*
X174377500Y-92460000D01*
X174377500Y-92460000D02*
X177062500Y-92460000D01*
X177062500Y-90540000D02*
X174377500Y-90540000D01*
%TO.C,R1*%
X175772936Y-83765000D02*
X176227064Y-83765000D01*
X175772936Y-85235000D02*
X176227064Y-85235000D01*
%TO.C,J2*%
X172695000Y-75520000D02*
X172695000Y-78120000D01*
X172695000Y-75520000D02*
X175355000Y-75520000D01*
X172695000Y-78120000D02*
X175355000Y-78120000D01*
X174025000Y-72920000D02*
X175355000Y-72920000D01*
X175355000Y-72920000D02*
X175355000Y-74250000D01*
X175355000Y-75520000D02*
X175355000Y-78120000D01*
%TD*%
M02*
